<!--?xml version="1.0" encoding="utf-8"?-->
<!-- Generator: Adobe Illustrator 23.0.1, SVG Export Plug-In . SVG Version: 6.00 Build 0)  -->
<svg version="1.1" id="Layer_1" xmlns="http://www.w3.org/2000/svg" xmlns:xlink="http://www.w3.org/1999/xlink" x="0px" y="0px" viewBox="0 0 205.5 82.4" style="" xml:space="preserve" stroke="#0A4C3F" stroke-width="1" fill="none">
<path class="st0 eoGjnFEF_0" d="M21.6,7.9l12.2,26.5h-4.4l-4-8.6h-11l-4.1,8.6H8.1L20.6,7.9H21.6z M15.1,24h9.5l-4.7-10.2L15.1,24z"></path>
<path class="st0 eoGjnFEF_1" d="M37.1,8.5h4.3v24.2h13v1.7H37.1V8.5z"></path>
<path class="st0 eoGjnFEF_2" d="M76.9,8.5v1.7h-9.4v24.2h-4.3V10.2h-9.4V8.5H76.9z"></path>
<path class="st0 eoGjnFEF_3" d="M98.8,8.5v1.7H85.2v9.2h9.1v1.7h-9.1v11.6h13.6v1.7h-18V8.5H98.8z"></path>
<path class="st0 eoGjnFEF_4" d="M103.7,8.5h8.9c1.6,0,2.9,0.2,4.1,0.5s2.1,0.8,2.9,1.4c0.8,0.6,1.4,1.3,1.8,2.1s0.6,1.7,0.6,2.7
	c0,0.8-0.2,1.6-0.5,2.3s-0.7,1.3-1.3,1.9c-0.6,0.6-1.2,1.1-2,1.5s-1.6,0.7-2.6,1l9.4,12.5h-5l-9-12.2h-3v12.2h-4.3V8.5z M108,20.9
	h2.5c1,0,1.9-0.1,2.7-0.4c0.8-0.3,1.5-0.6,2.1-1.1s1.1-1.1,1.4-1.7s0.5-1.4,0.5-2.3c0-0.8-0.1-1.5-0.4-2.1c-0.3-0.6-0.6-1.2-1.1-1.7
	s-1.1-0.8-1.7-1.1s-1.4-0.4-2.2-0.4H108V20.9z"></path>
<path class="st0 eoGjnFEF_5" d="M124.5,75.5H7.5V38.3h117V75.5z M13.2,45.1v1.5h8.5v21.9h3.9V46.7h8.5v-1.5H13.2V45.1z M47.8,44.6l-11.3,24h2
	l3.7-7.8h10l3.6,7.8h4l-11-24H47.8z M47.2,50l4.3,9.3h-8.6L47.2,50z M82,47.6c1.2,0.9,2.3,2.3,3.3,4.2l1.7-1.1
	c-0.5-0.8-1.1-1.5-1.7-2.3c-0.7-0.7-1.4-1.4-2.3-1.9c-0.9-0.6-1.8-1-2.9-1.3s-2.2-0.5-3.4-0.5c-1.3,0-2.5,0.2-3.7,0.5
	c-1.1,0.3-2.2,0.7-3.2,1.3s-1.9,1.2-2.6,2c-0.8,0.8-1.4,1.6-2,2.5c-0.5,0.9-1,1.9-1.2,2.9c-0.3,1-0.4,2.1-0.4,3.2s0.2,2.2,0.5,3.2
	c0.3,1,0.7,2,1.3,2.9c0.6,0.9,1.2,1.7,2,2.5c0.8,0.7,1.7,1.4,2.7,1.9s2.1,0.9,3.2,1.2c1.2,0.3,2.4,0.4,3.7,0.4c1.2,0,2.3,0,3.3-0.1
	s1.9-0.2,2.7-0.4c0.8-0.2,1.6-0.4,2.2-0.7s1.4-0.6,2.1-1V56.6h-8.4V58h4.4v8.2c-0.7,0.5-1.4,0.9-2.2,1.2c-0.8,0.3-1.8,0.4-2.8,0.4
	c-1.4,0-2.7-0.3-4-0.8c-1.2-0.5-2.3-1.2-3.2-2.2c-0.9-0.9-1.6-2.1-2.2-3.4s-0.8-2.8-0.8-4.5c0-1.6,0.2-3.1,0.7-4.5s1.2-2.5,2-3.4
	c0.9-0.9,1.9-1.6,3.1-2.2c1.2-0.5,2.5-0.8,3.9-0.8C79.4,46.3,80.8,46.7,82,47.6z M109.6,68.7c1.1-0.3,2.1-0.7,3.1-1.3
	c1-0.5,1.8-1.2,2.6-1.9c0.8-0.8,1.5-1.6,2-2.5s1-1.9,1.3-3s0.5-2.2,0.5-3.3s-0.2-2.2-0.5-3.2s-0.7-2-1.3-2.9s-1.2-1.7-2-2.4
	s-1.7-1.4-2.6-1.9c-1-0.5-2-0.9-3.1-1.2s-2.3-0.4-3.5-0.4s-2.4,0.1-3.5,0.4s-2.1,0.7-3.1,1.2s-1.8,1.2-2.6,1.9s-1.5,1.6-2,2.4
	s-1,1.9-1.3,2.9s-0.5,2.1-0.5,3.2c0,1.1,0.2,2.2,0.5,3.3s0.7,2,1.3,3s1.2,1.8,2,2.5c0.8,0.8,1.7,1.4,2.6,1.9c1,0.5,2,1,3.1,1.3
	s2.3,0.4,3.5,0.4S108.5,69,109.6,68.7z M102.5,67.1c-1-0.6-1.9-1.3-2.6-2.3s-1.2-2.2-1.6-3.6c-0.4-1.4-0.5-2.9-0.5-4.5
	s0.2-3.1,0.5-4.4c0.4-1.3,0.9-2.5,1.6-3.5s1.6-1.7,2.6-2.3c1-0.5,2.2-0.8,3.6-0.8c1.3,0,2.5,0.3,3.6,0.8c1,0.5,1.9,1.3,2.6,2.3
	s1.2,2.1,1.6,3.5c0.4,1.3,0.5,2.8,0.5,4.4c0,1.6-0.2,3.1-0.5,4.5c-0.4,1.4-0.9,2.6-1.6,3.6s-1.6,1.8-2.6,2.3s-2.2,0.8-3.6,0.8
	C104.8,68,103.6,67.7,102.5,67.1z"></path>
<g>
	<path class="st0 eoGjnFEF_6" d="M157.9,15.7c-4.4-5.2-4.2-10.3-4.1-11.3l-3.3,0.2c-0.1,2,0.2,7.6,4.9,13.2L157.9,15.7z M181.9,56
		c-0.5-1.3-0.5-2.5-0.4-3.7c-0.7,0.2-1.5,0.3-2.2,0.3c-0.3,0-0.5,0-0.8,0l0.3-3.3c1.6,0.1,3-0.4,4.2-1.2l0,0l0,0
		c1.9-1.4,3.2-3.7,3.6-5.5c0.4-1.8-0.1-3.8-1.4-4.8c-0.7-0.6-1.6-0.7-2.4-0.6c-0.6,0.1-2.2,0.7-3.2,3.6l-3.1-1
		c0.3-1,0.7-1.8,1.2-2.5c-3-1.1-16.4-5.9-28.1-15.6c-5.3,6.4-8.2,15.9-10.8,24.3c-0.2,0.7-0.4,1.3-0.6,2c4.4,0.1,8.8,1.6,12.2,4.5
		c7,5.7,13.8,4.2,16.5,1.3c1.5-1.6,2-3.2,1.3-4.4c-0.6-1-1.9-1.6-3.1-1.4c-1.3,0.2-2.2,1.4-2.5,3.3l-3.2-0.5
		c0.5-3.3,2.4-5.6,5.2-6.1c2.6-0.5,5.3,0.8,6.5,3.1c0.6,1.2,1.8,4.3-1.8,8.2c-2.4,2.6-5.5,3.6-8.6,3.6c-4.6,0-9.3-2.1-12.3-4.6
		c-0.2-0.1-0.3-0.3-0.5-0.4c0.1,0.6,0.2,1.2,0.2,1.8v8.4c0,2.9,2.4,4.2,4.9,4.2h2.8c0.4,0,0.7,0,1.1,0.1c1.2-2.3,3.6-3.9,6.3-3.9
		h19.9c0.6-1.9,1.5-3.7,2.4-5.4C183.7,58.9,182.5,57.6,181.9,56z M186.5,65.2h3.5v10.3h-3.3v-7h-23.6c-1.7,0-3.1,1.1-3.6,2.6
		l-1.4,4.4h-3.4l1.1-3.3H153c-4.7,0-8.1-3.1-8.1-7.4v-8.4c0-2.6-2.1-4.7-4.7-4.7h-3c-0.9,0-1.7-0.4-2.1-1.1
		c-0.5-0.7-0.6-1.6-0.3-2.3c0.3-1,0.7-2.1,1-3.2c2.5-8.4,5.7-18.7,11.5-25.6c0,0-4.1-4.3-4.4-10l3.3-0.2c-0.4,11,23.7,21.8,34,25.4
		c0.7-0.3,1.4-0.5,2.1-0.6c0.4-0.1,0.7-0.1,0.8-0.1c1.5-0.1,3,0.3,4.2,1.3c2.3,1.8,3.3,5,2.6,8.1c-0.6,2.6-2.1,5.1-4.3,6.9
		c-0.5,1-1.2,3.1-0.6,4.6c0.3,0.9,1.1,1.6,2.2,2.2c0.1-0.2,0.2-0.4,0.4-0.6c3.1-5.1,6.2-10.3,6.2-18.8c0-10.1-5.8-18.5-15.1-22
		c-2.4-0.9-5-1.5-7.5-1.7c-3.1-0.3-6-1.6-8.3-3.5c0.7,2.6,2.4,5.9,6.6,8.9l-1.9,2.6c-7.2-5.3-8.3-11.3-8.3-14.5l4.3-1
		c2,2.4,4.8,4,7.9,4.3c2.8,0.3,5.6,0.9,8.3,1.9c10.6,4,17.2,13.6,17.2,25.1c0,9.4-3.6,15.3-6.7,20.5
		C188.8,60.5,187.5,62.8,186.5,65.2z M151.9,36.1c-3.3,0-3.5,8.5,0,8.5c1.7,0,3.1-1.9,3.1-4.2C155,38,153.6,36.1,151.9,36.1
		L151.9,36.1z M160.9,32.6l-1.9,2.7c-4-2.5-8.3-2.5-10.5-2.4v-3.3C151.4,29.4,156.3,29.6,160.9,32.6L160.9,32.6z"></path>
</g>
<style data-made-with="vivus-instant">.eoGjnFEF_0{stroke-dasharray:129 131;stroke-dashoffset:130;animation:eoGjnFEF_draw_0 6200ms ease-in-out 0ms infinite,eoGjnFEF_fade 6200ms linear 0ms infinite;}.eoGjnFEF_1{stroke-dasharray:87 89;stroke-dashoffset:88;animation:eoGjnFEF_draw_1 6200ms ease-in-out 0ms infinite,eoGjnFEF_fade 6200ms linear 0ms infinite;}.eoGjnFEF_2{stroke-dasharray:98 100;stroke-dashoffset:99;animation:eoGjnFEF_draw_2 6200ms ease-in-out 0ms infinite,eoGjnFEF_fade 6200ms linear 0ms infinite;}.eoGjnFEF_3{stroke-dasharray:134 136;stroke-dashoffset:135;animation:eoGjnFEF_draw_3 6200ms ease-in-out 0ms infinite,eoGjnFEF_fade 6200ms linear 0ms infinite;}.eoGjnFEF_4{stroke-dasharray:149 151;stroke-dashoffset:150;animation:eoGjnFEF_draw_4 6200ms ease-in-out 0ms infinite,eoGjnFEF_fade 6200ms linear 0ms infinite;}.eoGjnFEF_5{stroke-dasharray:802 804;stroke-dashoffset:803;animation:eoGjnFEF_draw_5 6200ms ease-in-out 0ms infinite,eoGjnFEF_fade 6200ms linear 0ms infinite;}.eoGjnFEF_6{stroke-dasharray:753 755;stroke-dashoffset:754;animation:eoGjnFEF_draw_6 6200ms ease-in-out 0ms infinite,eoGjnFEF_fade 6200ms linear 0ms infinite;}@keyframes eoGjnFEF_draw{100%{stroke-dashoffset:0;}}@keyframes eoGjnFEF_fade{0%{stroke-opacity:1;}93.54838709677419%{stroke-opacity:1;}100%{stroke-opacity:0;}}@keyframes eoGjnFEF_draw_0{4.838709677419355%{stroke-dashoffset: 130}58.6021505376344%{ stroke-dashoffset: 0;}100%{ stroke-dashoffset: 0;}}@keyframes eoGjnFEF_draw_1{9.31899641577061%{stroke-dashoffset: 88}63.08243727598566%{ stroke-dashoffset: 0;}100%{ stroke-dashoffset: 0;}}@keyframes eoGjnFEF_draw_2{13.799283154121863%{stroke-dashoffset: 99}67.56272401433692%{ stroke-dashoffset: 0;}100%{ stroke-dashoffset: 0;}}@keyframes eoGjnFEF_draw_3{18.279569892473116%{stroke-dashoffset: 135}72.04301075268816%{ stroke-dashoffset: 0;}100%{ stroke-dashoffset: 0;}}@keyframes eoGjnFEF_draw_4{22.75985663082437%{stroke-dashoffset: 150}76.52329749103941%{ stroke-dashoffset: 0;}100%{ stroke-dashoffset: 0;}}@keyframes eoGjnFEF_draw_5{27.24014336917563%{stroke-dashoffset: 803}81.00358422939067%{ stroke-dashoffset: 0;}100%{ stroke-dashoffset: 0;}}@keyframes eoGjnFEF_draw_6{31.72043010752688%{stroke-dashoffset: 754}85.48387096774194%{ stroke-dashoffset: 0;}100%{ stroke-dashoffset: 0;}}</style></svg>
